<svg width="95" height="102" viewBox="0 0 95 102" fill="none" xmlns="http://www.w3.org/2000/svg">
<path d="M45.84 64.48V76L5.44 76.08V73.28L24.4 52.56C26.64 50.1067 28.24 47.9733 29.2 46.16C30.2133 44.3467 30.72 42.5867 30.72 40.88C30.72 39.0133 30.2133 37.5467 29.2 36.48C28.1867 35.4133 26.8533 34.88 25.2 34.88C23.6 34.88 22.2933 35.44 21.28 36.56C20.2667 37.6267 19.76 39.1733 19.76 41.2C19.76 42.2133 19.8667 43.3867 20.08 44.72H6.24C5.86667 43.2267 5.68 41.7333 5.68 40.24C5.68 37.2 6.48 34.2933 8.08 31.52C9.73333 28.7467 12.0533 26.5067 15.04 24.8C18.08 23.0933 21.5467 22.24 25.44 22.24C29.0667 22.24 32.3467 22.9867 35.28 24.48C38.2667 25.9733 40.5867 28.0533 42.24 30.72C43.9467 33.3333 44.8 36.2933 44.8 39.6C44.8 43.2267 43.8133 46.64 41.84 49.84C39.92 52.9867 37.0667 56.56 33.28 60.56L29.52 64.48H45.84ZM65.8906 55.84H52.8506V44.32H65.8906V30.88H78.8506V44.32H91.8106V55.84H78.8506V69.28H65.8906V55.84Z" fill="#21B9EB"/>
<path d="M43.84 64.48V76L3.44 76.08V73.28L22.4 52.56C24.64 50.1067 26.24 47.9733 27.2 46.16C28.2133 44.3467 28.72 42.5867 28.72 40.88C28.72 39.0133 28.2133 37.5467 27.2 36.48C26.1867 35.4133 24.8533 34.88 23.2 34.88C21.6 34.88 20.2933 35.44 19.28 36.56C18.2667 37.6267 17.76 39.1733 17.76 41.2C17.76 42.2133 17.8667 43.3867 18.08 44.72H4.24C3.86667 43.2267 3.68 41.7333 3.68 40.24C3.68 37.2 4.48 34.2933 6.08 31.52C7.73333 28.7467 10.0533 26.5067 13.04 24.8C16.08 23.0933 19.5467 22.24 23.44 22.24C27.0667 22.24 30.3467 22.9867 33.28 24.48C36.2667 25.9733 38.5867 28.0533 40.24 30.72C41.9467 33.3333 42.8 36.2933 42.8 39.6C42.8 43.2267 41.8133 46.64 39.84 49.84C37.92 52.9867 35.0667 56.56 31.28 60.56L27.52 64.48H43.84ZM63.8906 55.84H50.8506V44.32H63.8906V30.88H76.8506V44.32H89.8106V55.84H76.8506V69.28H63.8906V55.84Z" fill="#F70F61"/>
<path d="M44.84 63.48V75L4.44 75.08V72.28L23.4 51.56C25.64 49.1067 27.24 46.9733 28.2 45.16C29.2133 43.3467 29.72 41.5867 29.72 39.88C29.72 38.0133 29.2133 36.5467 28.2 35.48C27.1867 34.4133 25.8533 33.88 24.2 33.88C22.6 33.88 21.2933 34.44 20.28 35.56C19.2667 36.6267 18.76 38.1733 18.76 40.2C18.76 41.2133 18.8667 42.3867 19.08 43.72H5.24C4.86667 42.2267 4.68 40.7333 4.68 39.24C4.68 36.2 5.48 33.2933 7.08 30.52C8.73333 27.7467 11.0533 25.5067 14.04 23.8C17.08 22.0933 20.5467 21.24 24.44 21.24C28.0667 21.24 31.3467 21.9867 34.28 23.48C37.2667 24.9733 39.5867 27.0533 41.24 29.72C42.9467 32.3333 43.8 35.2933 43.8 38.6C43.8 42.2267 42.8133 45.64 40.84 48.84C38.92 51.9867 36.0667 55.56 32.28 59.56L28.52 63.48H44.84ZM64.8906 54.84H51.8506V43.32H64.8906V29.88H77.8506V43.32H90.8106V54.84H77.8506V68.28H64.8906V54.84Z" fill="white"/>
<rect x="16" y="19" width="3" height="8" fill="white"/>
<rect x="14" y="67" width="3" height="10" fill="white"/>
<rect x="22" y="21" width="6" height="8" fill="white"/>
<rect x="20" y="69" width="6" height="10" fill="white"/>
<rect x="31" y="19" width="1" height="8" fill="white"/>
<rect x="29" y="67" width="1" height="10" fill="white"/>
<rect x="25" y="19" width="3" height="6" fill="white"/>
<rect x="16" y="67" width="6" height="8" fill="white"/>
</svg>
