<svg width="102" height="102" viewBox="0 0 102 102" fill="none" xmlns="http://www.w3.org/2000/svg">
<path d="M45.84 64.48V76L5.44 76.08V73.28L24.4 52.56C26.64 50.1067 28.24 47.9733 29.2 46.16C30.2133 44.3467 30.72 42.5867 30.72 40.88C30.72 39.0133 30.2133 37.5467 29.2 36.48C28.1867 35.4133 26.8533 34.88 25.2 34.88C23.6 34.88 22.2933 35.44 21.28 36.56C20.2667 37.6267 19.76 39.1733 19.76 41.2C19.76 42.2133 19.8667 43.3867 20.08 44.72H6.24C5.86667 43.2267 5.68 41.7333 5.68 40.24C5.68 37.2 6.48 34.2933 8.08 31.52C9.73333 28.7467 12.0533 26.5067 15.04 24.8C18.08 23.0933 21.5467 22.24 25.44 22.24C29.0667 22.24 32.3467 22.9867 35.28 24.48C38.2667 25.9733 40.5867 28.0533 42.24 30.72C43.9467 33.3333 44.8 36.2933 44.8 39.6C44.8 43.2267 43.8133 46.64 41.84 49.84C39.92 52.9867 37.0667 56.56 33.28 60.56L29.52 64.48H45.84ZM75.8106 76.96C71.064 76.96 67.0373 75.76 63.7306 73.36C60.4773 70.9067 58.024 67.5733 56.3706 63.36C54.7173 59.1467 53.8906 54.4267 53.8906 49.2C53.8906 43.9733 54.6906 39.3333 56.2906 35.28C57.944 31.2267 60.424 28.0533 63.7306 25.76C67.0373 23.4133 71.064 22.24 75.8106 22.24C80.5573 22.24 84.584 23.4133 87.8906 25.76C91.1973 28.0533 93.6506 31.2267 95.2506 35.28C96.904 39.3333 97.7306 43.9733 97.7306 49.2C97.7306 54.4267 96.904 59.1467 95.2506 63.36C93.5973 67.5733 91.1173 70.9067 87.8106 73.36C84.5573 75.76 80.5573 76.96 75.8106 76.96ZM83.6506 49.28C83.6506 44.32 83.0106 40.6933 81.7306 38.4C80.4506 36.0533 78.4773 34.88 75.8106 34.88C73.144 34.88 71.1706 36.0533 69.8906 38.4C68.6106 40.6933 67.9706 44.32 67.9706 49.28C67.9706 59.3067 70.584 64.32 75.8106 64.32C81.0373 64.32 83.6506 59.3067 83.6506 49.28Z" fill="#21B9EB"/>
<path d="M43.84 64.48V76L3.44 76.08V73.28L22.4 52.56C24.64 50.1067 26.24 47.9733 27.2 46.16C28.2133 44.3467 28.72 42.5867 28.72 40.88C28.72 39.0133 28.2133 37.5467 27.2 36.48C26.1867 35.4133 24.8533 34.88 23.2 34.88C21.6 34.88 20.2933 35.44 19.28 36.56C18.2667 37.6267 17.76 39.1733 17.76 41.2C17.76 42.2133 17.8667 43.3867 18.08 44.72H4.24C3.86667 43.2267 3.68 41.7333 3.68 40.24C3.68 37.2 4.48 34.2933 6.08 31.52C7.73333 28.7467 10.0533 26.5067 13.04 24.8C16.08 23.0933 19.5467 22.24 23.44 22.24C27.0667 22.24 30.3467 22.9867 33.28 24.48C36.2667 25.9733 38.5867 28.0533 40.24 30.72C41.9467 33.3333 42.8 36.2933 42.8 39.6C42.8 43.2267 41.8133 46.64 39.84 49.84C37.92 52.9867 35.0667 56.56 31.28 60.56L27.52 64.48H43.84ZM73.8106 76.96C69.064 76.96 65.0373 75.76 61.7306 73.36C58.4773 70.9067 56.024 67.5733 54.3706 63.36C52.7173 59.1467 51.8906 54.4267 51.8906 49.2C51.8906 43.9733 52.6906 39.3333 54.2906 35.28C55.944 31.2267 58.424 28.0533 61.7306 25.76C65.0373 23.4133 69.064 22.24 73.8106 22.24C78.5573 22.24 82.584 23.4133 85.8906 25.76C89.1973 28.0533 91.6506 31.2267 93.2506 35.28C94.904 39.3333 95.7306 43.9733 95.7306 49.2C95.7306 54.4267 94.904 59.1467 93.2506 63.36C91.5973 67.5733 89.1173 70.9067 85.8106 73.36C82.5573 75.76 78.5573 76.96 73.8106 76.96ZM81.6506 49.28C81.6506 44.32 81.0106 40.6933 79.7306 38.4C78.4506 36.0533 76.4773 34.88 73.8106 34.88C71.144 34.88 69.1706 36.0533 67.8906 38.4C66.6106 40.6933 65.9706 44.32 65.9706 49.28C65.9706 59.3067 68.584 64.32 73.8106 64.32C79.0373 64.32 81.6506 59.3067 81.6506 49.28Z" fill="#F70F61"/>
<path d="M44.84 63.48V75L4.44 75.08V72.28L23.4 51.56C25.64 49.1067 27.24 46.9733 28.2 45.16C29.2133 43.3467 29.72 41.5867 29.72 39.88C29.72 38.0133 29.2133 36.5467 28.2 35.48C27.1867 34.4133 25.8533 33.88 24.2 33.88C22.6 33.88 21.2933 34.44 20.28 35.56C19.2667 36.6267 18.76 38.1733 18.76 40.2C18.76 41.2133 18.8667 42.3867 19.08 43.72H5.24C4.86667 42.2267 4.68 40.7333 4.68 39.24C4.68 36.2 5.48 33.2933 7.08 30.52C8.73333 27.7467 11.0533 25.5067 14.04 23.8C17.08 22.0933 20.5467 21.24 24.44 21.24C28.0667 21.24 31.3467 21.9867 34.28 23.48C37.2667 24.9733 39.5867 27.0533 41.24 29.72C42.9467 32.3333 43.8 35.2933 43.8 38.6C43.8 42.2267 42.8133 45.64 40.84 48.84C38.92 51.9867 36.0667 55.56 32.28 59.56L28.52 63.48H44.84ZM74.8106 75.96C70.064 75.96 66.0373 74.76 62.7306 72.36C59.4773 69.9067 57.024 66.5733 55.3706 62.36C53.7173 58.1467 52.8906 53.4267 52.8906 48.2C52.8906 42.9733 53.6906 38.3333 55.2906 34.28C56.944 30.2267 59.424 27.0533 62.7306 24.76C66.0373 22.4133 70.064 21.24 74.8106 21.24C79.5573 21.24 83.584 22.4133 86.8906 24.76C90.1973 27.0533 92.6506 30.2267 94.2506 34.28C95.904 38.3333 96.7306 42.9733 96.7306 48.2C96.7306 53.4267 95.904 58.1467 94.2506 62.36C92.5973 66.5733 90.1173 69.9067 86.8106 72.36C83.5573 74.76 79.5573 75.96 74.8106 75.96ZM82.6506 48.28C82.6506 43.32 82.0106 39.6933 80.7306 37.4C79.4506 35.0533 77.4773 33.88 74.8106 33.88C72.144 33.88 70.1706 35.0533 68.8906 37.4C67.6106 39.6933 66.9706 43.32 66.9706 48.28C66.9706 58.3067 69.584 63.32 74.8106 63.32C80.0373 63.32 82.6506 58.3067 82.6506 48.28Z" fill="white"/>
<rect x="16" y="19" width="3" height="8" fill="white"/>
<rect x="69" y="19" width="3" height="8" fill="white"/>
<rect x="14" y="67" width="3" height="10" fill="white"/>
<rect x="67" y="67" width="3" height="10" fill="white"/>
<rect x="22" y="21" width="6" height="8" fill="white"/>
<rect x="75" y="21" width="6" height="8" fill="white"/>
<rect x="20" y="69" width="6" height="10" fill="white"/>
<rect x="73" y="69" width="6" height="10" fill="white"/>
<rect x="31" y="19" width="1" height="8" fill="white"/>
<rect x="84" y="19" width="1" height="8" fill="white"/>
<rect x="29" y="66" width="1" height="10" fill="white"/>
<rect x="82" y="66" width="1" height="10" fill="white"/>
<rect x="25" y="19" width="3" height="6" fill="white"/>
<rect x="78" y="19" width="3" height="6" fill="white"/>
<rect x="16" y="67" width="6" height="8" fill="white"/>
<rect x="69" y="67" width="6" height="8" fill="white"/>
</svg>
