<svg width="44" height="38" viewBox="0 0 44 38" fill="none" xmlns="http://www.w3.org/2000/svg">
<path d="M42.7678 20.7678C43.7441 19.7915 43.7441 18.2085 42.7678 17.2322L26.8579 1.32233C25.8816 0.346022 24.2986 0.346022 23.3223 1.32233C22.346 2.29864 22.346 3.88156 23.3223 4.85787L37.4645 19L23.3223 33.1421C22.346 34.1184 22.346 35.7014 23.3223 36.6777C24.2986 37.654 25.8816 37.654 26.8579 36.6777L42.7678 20.7678ZM-2.18557e-07 21.5L2.5625 21.5L2.5625 16.5L2.18557e-07 16.5L-2.18557e-07 21.5ZM7.6875 21.5L12.8125 21.5L12.8125 16.5L7.6875 16.5L7.6875 21.5ZM17.9375 21.5L23.0625 21.5L23.0625 16.5L17.9375 16.5L17.9375 21.5ZM28.1875 21.5L33.3125 21.5L33.3125 16.5L28.1875 16.5L28.1875 21.5ZM38.4375 21.5L41 21.5L41 16.5L38.4375 16.5L38.4375 21.5Z" fill="white"/>
</svg>
