<svg width="53" height="65" viewBox="0 0 53 65" fill="none" xmlns="http://www.w3.org/2000/svg">
<path d="M44.9291 26.6964C44.293 26.6964 43.7771 27.2162 43.7771 27.8571V62.6786H2.30406V6.96429H10.3683V10.4464C10.3683 10.7542 10.4896 11.0496 10.7056 11.2672C10.9216 11.4848 11.2148 11.6071 11.5203 11.6071H34.5609C34.8664 11.6071 35.1595 11.4849 35.3755 11.2672C35.5915 11.0496 35.7129 10.7542 35.7129 10.4464V6.96429H43.7771V8.125C43.7771 8.76598 44.293 9.28571 44.9291 9.28571C45.5653 9.28571 46.0812 8.76598 46.0812 8.125V5.80357C46.0812 5.49578 45.9598 5.20041 45.7438 4.98278C45.5278 4.76515 45.2346 4.64286 44.9291 4.64286H35.7129V1.16071C35.7129 0.852919 35.5915 0.557554 35.3755 0.339923C35.1595 0.122293 34.8664 0 34.5609 0H11.5203C10.8841 0 10.3683 0.519735 10.3683 1.16071V4.64286H1.15203C0.515846 4.64286 0 5.16259 0 5.80357V63.8393C0 64.1471 0.121375 64.4424 0.33738 64.6601C0.553385 64.8777 0.846538 65 1.15203 65H44.9291C45.2346 65 45.5278 64.8777 45.7438 64.6601C45.9598 64.4424 46.0812 64.1471 46.0812 63.8393V27.8571C46.0812 27.5493 45.9598 27.254 45.7438 27.0364C45.5278 26.8187 45.2346 26.6964 44.9291 26.6964ZM12.6723 2.32143H33.4089V9.28571H12.6723V2.32143Z" fill="#F70F61"/>
<path d="M52.0374 10.6322C51.4161 10.0363 50.5912 9.70361 49.7333 9.70361C48.8754 9.70361 48.0506 10.0363 47.4292 10.6322L28.8006 29.4132C28.7492 29.4681 28.7065 29.5308 28.6741 29.5987C28.6314 29.6619 28.5928 29.7277 28.5589 29.7961L27.0612 34.2996C26.9363 34.7105 27.0474 35.1566 27.3492 35.4603C27.5637 35.6748 27.8533 35.7955 28.1557 35.7971C28.2776 35.8147 28.402 35.8147 28.5239 35.7971L32.9937 34.2882H32.9942C33.0641 34.2581 33.1299 34.2193 33.1896 34.1721C33.2616 34.1405 33.328 34.0975 33.3856 34.0441L52.0366 15.2644C52.6527 14.6514 52.9999 13.8156 52.9999 12.943C52.9999 12.0704 52.6527 11.2346 52.0366 10.6216L52.0374 10.6322ZM31.9578 32.2215L29.953 32.9065L30.6329 30.8639L46.1847 15.183L47.5439 16.5411L31.9578 32.2215ZM50.3903 13.65L49.1231 14.9268L47.7751 13.5687L49.0424 12.2805C49.4214 11.9121 50.0221 11.9121 50.4016 12.2805C50.5801 12.4583 50.6793 12.7013 50.6783 12.9537C50.6824 13.207 50.5821 13.4506 50.4016 13.6273L50.3903 13.65Z" fill="#F70F61"/>
<path d="M32.2564 20.8929C32.2564 20.5851 32.135 20.2897 31.919 20.0721C31.703 19.8545 31.4099 19.7322 31.1044 19.7322H10.3678C9.73167 19.7322 9.21582 20.2519 9.21582 20.8929C9.21582 21.5339 9.73167 22.0536 10.3678 22.0536H31.1044C31.4099 22.0536 31.703 21.9313 31.919 21.7137C32.135 21.496 32.2564 21.2007 32.2564 20.8929Z" fill="#F70F61"/>
<path d="M24.1922 27.8572H10.3678C9.73167 27.8572 9.21582 28.3769 9.21582 29.0179C9.21582 29.6589 9.73167 30.1786 10.3678 30.1786H24.1922C24.8284 30.1786 25.3442 29.6589 25.3442 29.0179C25.3442 28.3769 24.8284 27.8572 24.1922 27.8572Z" fill="#F70F61"/>
<path d="M10.3678 38.3036H21.8881C22.5243 38.3036 23.0402 37.7839 23.0402 37.1429C23.0402 36.5019 22.5243 35.9822 21.8881 35.9822H10.3678C9.73167 35.9822 9.21582 36.5019 9.21582 37.1429C9.21582 37.7839 9.73167 38.3036 10.3678 38.3036Z" fill="#F70F61"/>
<path d="M35.7125 44.1072H10.3678C9.73167 44.1072 9.21582 44.6269 9.21582 45.2679C9.21582 45.9089 9.73167 46.4286 10.3678 46.4286H35.7125C36.3487 46.4286 36.8645 45.9089 36.8645 45.2679C36.8645 44.6269 36.3487 44.1072 35.7125 44.1072Z" fill="#F70F61"/>
<path d="M35.7125 52.2322H10.3678C9.73167 52.2322 9.21582 52.7519 9.21582 53.3929C9.21582 54.0339 9.73167 54.5536 10.3678 54.5536H35.7125C36.3487 54.5536 36.8645 54.0339 36.8645 53.3929C36.8645 52.7519 36.3487 52.2322 35.7125 52.2322Z" fill="#F70F61"/>
</svg>
