<svg width="72" height="46" viewBox="0 0 72 46" fill="none" xmlns="http://www.w3.org/2000/svg">
<path d="M65.5715 6.35716C65.5244 4.65722 64.8092 3.04243 63.5781 1.85498C62.3463 0.66812 60.6956 0.00290613 58.976 0H6.60869C4.85689 0.0034057 3.17798 0.69304 1.93944 1.9179C0.700792 3.14279 0.00337958 4.80296 0 6.53531V33.1206C0.00286985 34.8211 0.675578 36.4537 1.87581 37.6716C3.07658 38.8897 4.70952 39.5969 6.42854 39.6428C6.47561 41.3428 7.19079 42.9582 8.42191 44.145C9.65366 45.3319 11.3044 45.9971 13.024 46H65.3913C67.1408 45.9966 68.8179 45.3087 70.056 44.0866C71.2947 42.8645 71.9932 41.2078 72 39.4776V12.8923C72.0006 11.1895 71.329 9.55362 70.1283 8.33275C68.9281 7.11241 67.2928 6.40352 65.5715 6.35687V6.35716ZM6.60957 2.54287H58.9636C60.0335 2.54627 61.0587 2.968 61.8145 3.7161C62.571 4.46363 62.9975 5.47736 63.001 6.53534V10.1713H2.57262V6.53534C2.57607 5.47733 3.00253 4.46356 3.75903 3.7161C4.51495 2.968 5.54007 2.54627 6.60993 2.54287H6.60957ZM2.57215 33.1212V12.7143H63.0005V33.0573C62.997 34.1153 62.5706 35.1285 61.8141 35.8765C61.0581 36.6246 60.033 37.0463 58.9632 37.0497H6.6091C5.55012 37.0463 4.53478 36.6337 3.78054 35.8992C3.02577 35.1647 2.59184 34.1674 2.57174 33.1208L2.57215 33.1212ZM69.429 39.4784C69.4256 40.5364 68.9991 41.5496 68.2426 42.2976C67.4867 43.0457 66.4616 43.4674 65.3917 43.4708H13.0376C11.9993 43.4686 11.0023 43.0707 10.2527 42.3606C9.50311 41.65 9.05943 40.6816 9.01294 39.6566H58.9631C60.7149 39.6532 62.3938 38.9635 63.6324 37.7387C64.871 36.5138 65.5684 34.8536 65.5718 33.1213V8.90012C66.609 8.94609 67.5882 9.38484 68.3062 10.1261C69.0248 10.8669 69.4266 11.8534 69.4289 12.8796L69.429 39.4784Z" fill="#F70F61"/>
<path d="M10.2857 29.243H26.9999C27.3409 29.243 27.668 29.1091 27.9091 28.8707C28.1502 28.6323 28.2856 28.3088 28.2856 27.9716V21.6145C28.2856 21.2773 28.1502 20.9538 27.9091 20.7154C27.668 20.477 27.3409 20.343 26.9999 20.343H10.2857C9.5757 20.343 9 20.9123 9 21.6145V27.9716C9 28.3088 9.13546 28.6323 9.37653 28.8707C9.6176 29.1091 9.94477 29.243 10.2857 29.243ZM11.5714 22.8859H25.7142V26.7002H11.5714V22.8859Z" fill="#F70F61"/>
<path d="M36.0006 29.2431H55.2862C55.9962 29.2431 56.5719 28.6737 56.5719 27.9716C56.5719 27.2695 55.9962 26.7002 55.2862 26.7002H36.0006C35.2905 26.7002 34.7148 27.2695 34.7148 27.9716C34.7148 28.6737 35.2905 29.2431 36.0006 29.2431Z" fill="#F70F61"/>
<path d="M36.0006 22.8859H55.2862C55.9962 22.8859 56.5719 22.3166 56.5719 21.6145C56.5719 20.9123 55.9962 20.343 55.2862 20.343H36.0006C35.2905 20.343 34.7148 20.9123 34.7148 21.6145C34.7148 22.3166 35.2905 22.8859 36.0006 22.8859Z" fill="#F70F61"/>
</svg>
