<svg width="70" height="70" viewBox="0 0 70 70" fill="none" xmlns="http://www.w3.org/2000/svg">
<path d="M50.6234 54.9998H8.12401C7.43373 54.9998 6.87402 55.5595 6.87402 56.2498C6.87402 56.9401 7.43373 57.4998 8.12401 57.4998H50.6234C51.3137 57.4998 51.8734 56.9401 51.8734 56.2498C51.8734 55.5595 51.3137 54.9998 50.6234 54.9998Z" fill="#F70F61"/>
<path d="M17.498 58.7498C16.0064 58.7498 14.5756 59.3424 13.5203 60.3971C12.4656 61.4523 11.873 62.8831 11.873 64.3748C11.873 65.8666 12.4657 67.2973 13.5203 68.3526C14.5755 69.4073 16.0063 69.9999 17.498 69.9999C18.9897 69.9999 20.4204 69.4073 21.4756 68.3526C22.5303 67.2973 23.1229 65.8666 23.1229 64.3748C23.1195 62.8837 22.5258 61.4551 21.4716 60.4011C20.4175 59.347 18.9889 58.7532 17.498 58.7498ZM17.498 67.4999C16.6693 67.4999 15.8741 67.1706 15.2881 66.5847C14.7022 65.9988 14.373 65.2035 14.373 64.3748C14.373 63.5461 14.7022 62.7509 15.2881 62.1649C15.8741 61.5789 16.6693 61.2497 17.498 61.2497C18.3267 61.2497 19.1218 61.579 19.7078 62.1649C20.2938 62.7509 20.623 63.5461 20.623 64.3748C20.623 65.2035 20.2937 65.9987 19.7078 66.5847C19.1219 67.1707 18.3267 67.4999 17.498 67.4999Z" fill="#F70F61"/>
<path d="M39.998 58.7498C38.5064 58.7498 37.0756 59.3424 36.0203 60.3971C34.9656 61.4523 34.373 62.8831 34.373 64.3748C34.373 65.8666 34.9657 67.2973 36.0203 68.3526C37.0755 69.4073 38.5063 69.9999 39.998 69.9999C41.4897 69.9999 42.9204 69.4073 43.9756 68.3526C45.0303 67.2973 45.6229 65.8666 45.6229 64.3748C45.6195 62.8837 45.0258 61.4551 43.9716 60.4011C42.9175 59.347 41.489 58.7532 39.998 58.7498ZM39.998 67.4999C39.1693 67.4999 38.3741 67.1706 37.7881 66.5847C37.2022 65.9988 36.873 65.2035 36.873 64.3748C36.873 63.5461 37.2022 62.7509 37.7881 62.1649C38.3741 61.5789 39.1693 61.2497 39.998 61.2497C40.8267 61.2497 41.6218 61.579 42.2078 62.1649C42.7938 62.7509 43.123 63.5461 43.123 64.3748C43.123 65.2035 42.7937 65.9987 42.2078 66.5847C41.6219 67.1707 40.8267 67.4999 39.998 67.4999Z" fill="#F70F61"/>
<path d="M69.8977 0.76136C69.6281 0.126866 68.8954 -0.169452 68.2598 0.0989655L59.5099 3.84902C59.1216 4.00303 58.8353 4.34065 58.7477 4.74914L49.5977 49.9997H47.6351L52.4978 25.2366C52.5703 24.8688 52.4738 24.4877 52.2355 24.1986C51.9917 23.9062 51.6284 23.7405 51.2478 23.7488H48.7478V8.74862C48.7478 8.41715 48.6161 8.09906 48.3818 7.86468C48.1474 7.63031 47.8293 7.49861 47.4978 7.49861H33.748V2.49854C33.748 2.16706 33.6163 1.84897 33.382 1.6146C33.1476 1.38023 32.8295 1.24852 32.4981 1.24852H12.4983C11.8081 1.24852 11.2484 1.80825 11.2484 2.49854V9.99864H4.99844C4.30817 9.99864 3.74846 10.5584 3.74846 11.2487V23.7488H1.2485C0.876844 23.7483 0.524178 23.9129 0.285895 24.1986C0.0476129 24.4877 -0.0489296 24.8688 0.0236265 25.2366L5.14855 51.4869C5.26351 52.0829 5.79085 52.5104 6.39854 52.4992H50.6222C51.2254 52.5115 51.7516 52.0907 51.8722 51.4992L61.1221 5.88571L69.2592 2.39795V2.39851C69.8842 2.11894 70.1688 1.38901 69.897 0.760633L69.8977 0.76136ZM46.248 9.9992V23.7494H33.7482V9.9992H46.248ZM13.7484 3.74911H31.2482V23.7494H18.7484V11.2492C18.7484 10.9177 18.6167 10.5996 18.3823 10.3653C18.1479 10.1309 17.8299 9.9992 17.4984 9.9992H13.7484V3.74911ZM6.24855 12.4992H16.2484V23.7494H6.24855V12.4992ZM2.76089 26.2494H49.7359L45.0859 49.9997H7.41068L2.76089 26.2494Z" fill="#F70F61"/>
<path d="M39.9977 41.2495H12.498C11.8078 41.2495 11.248 41.8092 11.248 42.4995C11.248 43.1898 11.8078 43.7495 12.498 43.7495H39.9977C40.6879 43.7495 41.2476 43.1898 41.2476 42.4995C41.2476 41.8092 40.6879 41.2495 39.9977 41.2495Z" fill="#F70F61"/>
<path d="M42.4976 32.4995H9.99803C9.30775 32.4995 8.74805 33.0592 8.74805 33.7495C8.74805 34.4398 9.30775 34.9995 9.99803 34.9995H42.4976C43.1878 34.9995 43.7475 34.4398 43.7475 33.7495C43.7475 33.0592 43.1878 32.4995 42.4976 32.4995Z" fill="#F70F61"/>
</svg>
