<svg width="52" height="66" viewBox="0 0 52 66" fill="none" xmlns="http://www.w3.org/2000/svg">
<path d="M46.0949 16.1966C46.0226 15.5996 45.5141 15.152 44.9132 15.1562H42.5498C42.0787 9.59413 38.8381 4.64435 33.9304 1.9902C29.0221 -0.663401 23.1084 -0.663401 18.1998 1.9902C13.2921 4.64435 10.0514 9.59413 9.58036 15.1562H7.09882C6.49795 15.152 5.98941 15.5996 5.91713 16.1966L0.00869587 64.6755C-0.0319244 65.0097 0.0709469 65.3449 0.292518 65.5977C0.518834 65.8564 0.846964 66.0031 1.19038 66H50.8212C51.1604 65.9994 51.4833 65.8532 51.7075 65.5977C51.9291 65.3449 52.0319 65.0097 51.9913 64.6755L46.0949 16.1966ZM26.0062 2.14955C29.5709 2.13688 33.0098 3.46868 35.6374 5.87895C38.2651 8.28918 39.8893 11.6016 40.1864 15.1561H11.8854C12.1819 11.6116 13.7972 8.3081 16.4127 5.89895C19.0276 3.49034 22.452 2.15212 26.0065 2.14955H26.0062ZM2.52643 63.635L8.15099 17.5209H43.8622L49.4868 63.635H2.52643Z" fill="#F70F61"/>
<path d="M33.9591 25.2546L17.4155 29.9843C16.763 30.0724 16.3056 30.6732 16.3937 31.3261C16.4818 31.9791 17.0821 32.4373 17.7347 32.3491C17.8402 32.366 17.9483 32.366 18.0538 32.3491L34.5975 27.6195C34.9193 27.554 35.1999 27.3571 35.3714 27.0768C35.5423 26.796 35.5892 26.4566 35.5001 26.1404C35.4115 25.8237 35.1946 25.5587 34.9024 25.4082C34.6096 25.2583 34.2683 25.2367 33.9591 25.3491V25.2546Z" fill="#F70F61"/>
<path d="M33.9591 35.8962L17.4155 40.6259C16.763 40.714 16.3056 41.3148 16.3937 41.9677C16.4818 42.6207 17.0821 43.0789 17.7347 42.9907C17.8402 43.0076 17.9483 43.0076 18.0538 42.9907L34.5975 38.2611C35.1788 38.0494 35.499 37.4255 35.3313 36.8295C35.164 36.2335 34.5658 35.8677 33.9592 35.9907L33.9591 35.8962Z" fill="#F70F61"/>
<path d="M33.9591 46.5381L17.4155 51.2677C16.763 51.3559 16.3056 51.9566 16.3937 52.6096C16.4818 53.2625 17.0821 53.7207 17.7347 53.6326C17.8402 53.6495 17.9483 53.6495 18.0538 53.6326L34.5975 48.9029C35.1788 48.6912 35.499 48.0673 35.3313 47.4713C35.164 46.8753 34.5658 46.5095 33.9592 46.6325L33.9591 46.5381Z" fill="#F70F61"/>
</svg>
