<svg width="89" height="44" viewBox="0 0 89 44" fill="none" xmlns="http://www.w3.org/2000/svg">
<path d="M86.1065 21.3039L77.4448 17.6433L73.8214 10.4632C73.4248 9.67837 72.8146 9.01836 72.0597 8.5576C71.3041 8.09679 70.4335 7.8541 69.5459 7.8555H57.2134V4.87039C57.256 3.6093 56.7856 2.38462 55.9079 1.46871C55.0296 0.553388 53.817 0.0245453 52.5406 0H23.839C22.9614 0 22.2497 0.703499 22.2497 1.57111C22.2497 2.43872 22.9614 3.14222 23.839 3.14222H52.5406C52.9748 3.16607 53.38 3.36387 53.6617 3.69001C53.944 4.01686 54.0788 4.4433 54.0349 4.87045V34.5654H30.0375C29.5473 32.1792 27.9658 30.1522 25.755 29.0783C23.5449 28.0045 20.9552 28.0045 18.7451 29.0783C16.5342 30.1521 14.9527 32.1792 14.4625 34.5654H1.58929C0.711637 34.5654 0 35.2689 0 36.1365C0 37.0041 0.711637 37.7076 1.58929 37.7076H14.4625C14.9528 40.0937 16.5342 42.1207 18.7451 43.1946C20.9552 44.2685 23.5449 44.2685 25.755 43.1946C27.9658 42.1208 29.5473 40.0937 30.0375 37.7076H62.1411C62.6314 40.0937 64.2128 42.1207 66.4237 43.1946C68.6338 44.2685 71.2235 44.2685 73.4336 43.1946C75.6444 42.1208 77.2259 40.0937 77.7161 37.7076H84.2322C85.4965 37.7076 86.7099 37.211 87.6037 36.3273C88.4975 35.4435 89 34.244 89 32.9943V25.6417C89.0007 24.718 88.7268 23.8146 88.2124 23.0437C87.6981 22.2729 86.9666 21.6683 86.1073 21.305L86.1065 21.3039ZM22.2499 40.8485C20.9855 40.8485 19.7722 40.352 18.8784 39.4682C17.9846 38.5844 17.4821 37.385 17.4821 36.1353C17.4821 34.8856 17.9844 33.686 18.8784 32.8024C19.7724 31.9188 20.9857 31.422 22.2499 31.422C23.514 31.422 24.7275 31.9186 25.6213 32.8024C26.5151 33.6861 27.0176 34.8856 27.0176 36.1353C27.0176 37.385 26.5153 38.5846 25.6213 39.4682C24.7273 40.3518 23.514 40.8485 22.2499 40.8485ZM69.9285 40.8485C68.6641 40.8485 67.4508 40.352 66.557 39.4682C65.6632 38.5844 65.1607 37.385 65.1607 36.1353C65.1607 34.8856 65.663 33.686 66.557 32.8024C67.451 31.9188 68.6643 31.422 69.9285 31.422C71.1926 31.422 72.4061 31.9186 73.2999 32.8024C74.1938 33.6861 74.6962 34.8856 74.6962 36.1353C74.6962 37.385 74.1939 38.5846 73.2999 39.4682C72.406 40.3518 71.1926 40.8485 69.9285 40.8485ZM85.8213 32.993C85.8213 33.4096 85.6539 33.8094 85.3559 34.104C85.0579 34.3986 84.6535 34.5641 84.2321 34.5641H77.716C77.2257 32.178 75.6443 30.151 73.4334 29.077C71.2233 28.0032 68.6336 28.0032 66.4235 29.077C64.2127 30.1509 62.6312 32.178 62.141 34.5641H57.2142V10.9974H69.5467C70.1512 10.9932 70.7053 11.3285 70.977 11.8615L74.8709 19.56C75.0397 19.891 75.3214 20.1526 75.6655 20.2985L84.8514 24.1947H84.8521C85.4389 24.4409 85.8206 25.0097 85.8213 25.6403L85.8213 32.993Z" fill="#F70F61"/>
<path d="M19.0717 9.4264H39.7324C40.6101 9.4264 41.3217 8.7229 41.3217 7.85529C41.3217 6.98768 40.6101 6.28418 39.7324 6.28418H19.0717C18.1941 6.28418 17.4824 6.98768 17.4824 7.85529C17.4824 8.7229 18.1941 9.4264 19.0717 9.4264Z" fill="#F70F61"/>
<path d="M14.3032 17.2819H34.9639C35.8415 17.2819 36.5532 16.5784 36.5532 15.7108C36.5532 14.8431 35.8415 14.1396 34.9639 14.1396H14.3032C13.4255 14.1396 12.7139 14.8431 12.7139 15.7108C12.7139 16.5784 13.4255 17.2819 14.3032 17.2819Z" fill="#F70F61"/>
<path d="M9.53558 25.1373H30.1963C31.074 25.1373 31.7856 24.4338 31.7856 23.5662C31.7856 22.6986 31.074 21.9951 30.1963 21.9951H9.53558C8.65793 21.9951 7.94629 22.6986 7.94629 23.5662C7.94629 24.4338 8.65793 25.1373 9.53558 25.1373Z" fill="#F70F61"/>
</svg>
