<svg width="57" height="63" viewBox="0 0 57 63" fill="none" xmlns="http://www.w3.org/2000/svg">
<path d="M24.2709 24.7461L28.5001 21.5628L32.7292 24.7461L31.1108 19.5944L35.34 16.3995H30.119L28.5001 11.2478L26.8812 16.3995H21.6602L25.8893 19.5944L24.2709 24.7461Z" fill="#F70F61"/>
<path d="M56.8512 54.9489L42.1799 29.8086C45.1153 26.556 46.7378 22.3529 46.7399 17.9976C46.7399 11.5678 43.2633 5.62622 37.62 2.41157C31.9766 -0.803856 25.0235 -0.803856 19.3802 2.41157C13.7368 5.62648 10.2602 11.5682 10.2602 17.9976C10.2623 22.3529 11.8848 26.556 14.8202 29.8086L0.148883 54.9489C-0.160542 55.4867 0.0277589 56.1697 0.570783 56.4784L11.6745 62.8449V62.8454C11.8496 62.9383 12.045 62.9885 12.2445 62.9915C12.3427 63.0025 12.442 63.0025 12.5407 62.9915C12.8349 62.9142 13.0853 62.7233 13.2359 62.4627L28.5 36.1976L43.7641 62.4293C43.9076 62.703 44.159 62.9063 44.4593 62.9917C44.558 63.0028 44.6573 63.0028 44.7555 62.9917C44.955 62.9887 45.1504 62.9385 45.3255 62.8456L56.4292 56.4791V56.4786C56.9722 56.1698 57.1605 55.4869 56.8511 54.9491L56.8512 54.9489ZM28.5001 2.24895C32.7327 2.24895 36.7924 3.90808 39.7854 6.86138C42.7784 9.81468 44.4599 13.8205 44.4599 17.997C44.4716 22.0615 42.872 25.9694 40.0027 28.8855C37.1288 31.8739 33.1745 33.6204 29.0018 33.745H27.9982C23.8286 33.6265 19.8747 31.888 16.9972 28.9081C14.1224 25.9864 12.5222 22.0691 12.5401 17.997C12.5401 13.8205 14.2215 9.81468 17.2146 6.86138C20.2076 3.90808 24.2672 2.24895 28.4999 2.24895H28.5001ZM11.8224 60.3251L2.69073 55.117L16.4396 31.495C19.1364 33.8717 22.4979 35.3893 26.0837 35.8483L11.8224 60.3251ZM45.1777 60.3251L30.9168 35.8366C34.5012 35.3811 37.8625 33.8676 40.5609 31.4949L54.3098 55.1169L45.1777 60.3251Z" fill="#F70F61"/>
</svg>
