<svg width="19" height="19" viewBox="0 0 19 19" fill="none" xmlns="http://www.w3.org/2000/svg">
<path d="M11.897 2.55913L13.1296 1.32744L11.8021 0L8.32227 3.47986L11.8021 6.95972L13.1296 5.63227L11.9589 4.46259C13.8242 4.67947 15.282 6.25083 15.282 8.17338H17.1595C17.1597 5.19224 14.8306 2.75171 11.897 2.55913Z" fill="#F70F61"/>
<path d="M10.3528 12.6025C9.75584 12.3509 8.74478 11.8469 7.93472 11.0376C7.12461 10.2284 6.62048 9.21653 6.36986 8.61954L7.15186 7.83754L3.43335 2.26245L0.964546 4.73125C-1.08289 6.77954 0.22948 11.2977 3.95159 15.0199C6.3999 17.4682 9.33625 18.9888 11.6155 18.9888C12.6913 18.9888 13.5982 18.65 14.2421 18.0069L16.7091 15.5381L11.134 11.8206L10.3528 12.6025Z" fill="#F70F61"/>
</svg>
