<svg width="28" height="24" viewBox="0 0 28 24" fill="none" xmlns="http://www.w3.org/2000/svg">
<path d="M0.939339 13.0607C0.353552 12.4749 0.353552 11.5251 0.939339 10.9393L10.4853 1.3934C11.0711 0.80761 12.0208 0.80761 12.6066 1.3934C13.1924 1.97918 13.1924 2.92893 12.6066 3.51472L4.12132 12L12.6066 20.4853C13.1924 21.0711 13.1924 22.0208 12.6066 22.6066C12.0208 23.1924 11.0711 23.1924 10.4853 22.6066L0.939339 13.0607ZM28 13.5L25.8333 13.5L25.8333 10.5L28 10.5L28 13.5ZM21.5 13.5L17.1667 13.5L17.1667 10.5L21.5 10.5L21.5 13.5ZM12.8333 13.5L8.5 13.5L8.5 10.5L12.8333 10.5L12.8333 13.5ZM4.16666 13.5L2 13.5L2 10.5L4.16666 10.5L4.16666 13.5Z" fill="#838383"/>
</svg>
